<svg xmlns="http://www.w3.org/2000/svg" viewBox="0 0 512 512">
  <defs>
    <linearGradient id="bg" x1="0" y1="0" x2="1" y2="1">
      <stop offset="0" stop-color="#2a2350"/>
      <stop offset="1" stop-color="#0e1016"/>
    </linearGradient>
    <linearGradient id="gold" x1="0" y1="0" x2="0" y2="1">
      <stop offset="0" stop-color="#ffd98a"/>
      <stop offset="1" stop-color="#f0a92e"/>
    </linearGradient>
    <linearGradient id="page" x1="0" y1="0" x2="0" y2="1">
      <stop offset="0" stop-color="#fffaf0"/>
      <stop offset="1" stop-color="#efe4cf"/>
    </linearGradient>
    <radialGradient id="glow" cx="0.5" cy="0.36" r="0.4">
      <stop offset="0" stop-color="#f2b544" stop-opacity="0.45"/>
      <stop offset="1" stop-color="#f2b544" stop-opacity="0"/>
    </radialGradient>
  </defs>
  <rect width="512" height="512" rx="112" fill="url(#bg)"/>
  <circle cx="256" cy="190" r="200" fill="url(#glow)"/>
  <!-- libro abierto -->
  <path d="M256 330 C 210 300, 150 292, 104 300 L 104 392 C 150 384, 210 392, 256 420 Z" fill="url(#page)"/>
  <path d="M256 330 C 302 300, 362 292, 408 300 L 408 392 C 362 384, 302 392, 256 420 Z" fill="url(#page)"/>
  <path d="M256 330 L 256 420" stroke="#d9c7a3" stroke-width="4"/>
  <path d="M132 326 C 170 320, 210 326, 236 342 M132 350 C 170 344, 210 350, 236 366 M276 342 C 302 326, 342 320, 380 326 M276 366 C 302 350, 342 344, 380 350" stroke="#cdb894" stroke-width="7" stroke-linecap="round" fill="none"/>
  <!-- campanita / destello -->
  <path d="M256 92 C 264 150, 274 160, 332 168 C 274 176, 264 186, 256 244 C 248 186, 238 176, 180 168 C 238 160, 248 150, 256 92 Z" fill="url(#gold)"/>
  <circle cx="352" cy="110" r="10" fill="#ffd98a"/>
  <circle cx="160" cy="236" r="7" fill="#ffd98a" opacity="0.8"/>
  <circle cx="372" cy="232" r="5" fill="#ffd98a" opacity="0.7"/>
</svg>
